<svg width="155" height="53" viewBox="0 0 155 53" fill="none" xmlns="http://www.w3.org/2000/svg">
<g clip-path="url(#clip0_9_4024)">
<path d="M71.56 44.62H67.95V41.3H66.66V49.49H67.95V45.81H71.56V49.49H72.85V41.3H71.56V44.62Z" fill="white"/>
<path d="M79.87 48.32C79.81 48.33 79.73 48.34 79.62 48.36C79.38 48.39 79.1 48.41 78.78 48.41C78.51 48.41 78.28 48.38 78.1 48.31C77.94 48.25 77.81 48.15 77.71 48.02C77.6 47.88 77.52 47.69 77.47 47.45C77.42 47.19 77.39 46.86 77.39 46.48V43.24H76.14V46.71C76.14 47.12 76.18 47.5 76.26 47.84C76.35 48.2 76.49 48.51 76.69 48.77C76.89 49.03 77.16 49.24 77.49 49.38C77.81 49.52 78.21 49.59 78.67 49.59C79.21 49.59 79.67 49.55 80.05 49.47C80.43 49.39 80.71 49.33 80.93 49.27L81.13 49.22V43.24H79.88V48.32H79.87Z" fill="white"/>
<path d="M89.1101 44.06C88.8601 43.77 88.5601 43.53 88.2001 43.37C87.8501 43.21 87.4401 43.13 86.9901 43.13C86.5801 43.13 86.2201 43.19 85.9201 43.31C85.8301 43.34 85.7501 43.38 85.6801 43.41V40.34L84.4301 40.57V49.25L84.6101 49.31C84.8301 49.39 85.1201 49.46 85.4601 49.53C85.8101 49.6 86.2501 49.63 86.7701 49.63C87.2201 49.63 87.6401 49.55 88.0101 49.41C88.3901 49.26 88.7201 49.04 88.9901 48.76C89.2601 48.48 89.4701 48.13 89.6201 47.73C89.7701 47.33 89.84 46.88 89.84 46.39C89.84 45.93 89.7801 45.5 89.6601 45.11C89.5401 44.71 89.3501 44.36 89.1101 44.07V44.06ZM88.5501 46.37C88.5501 47.05 88.3801 47.57 88.0601 47.92C87.7301 48.27 87.3101 48.44 86.7601 48.44C86.4201 48.44 86.1501 48.42 85.9401 48.39C85.8401 48.37 85.7501 48.36 85.6801 48.34V44.69C85.6801 44.69 85.7601 44.64 85.8001 44.62C85.8901 44.57 85.9901 44.52 86.1101 44.47C86.2301 44.42 86.3601 44.39 86.5001 44.35C86.6401 44.32 86.7801 44.31 86.9301 44.31C87.2401 44.31 87.5001 44.36 87.7001 44.47C87.9001 44.57 88.0601 44.72 88.1801 44.89C88.3101 45.07 88.4001 45.29 88.4601 45.54C88.5201 45.8 88.5501 46.08 88.5501 46.38V46.37Z" fill="white"/>
<path d="M96.07 46.44C95.9 46.3 95.7 46.17 95.47 46.07C95.26 45.98 95.05 45.88 94.83 45.8C94.62 45.71 94.43 45.63 94.27 45.56C94.12 45.49 94 45.42 93.9 45.35C93.82 45.29 93.76 45.22 93.72 45.15C93.68 45.08 93.66 44.99 93.66 44.88C93.66 44.78 93.68 44.69 93.72 44.63C93.76 44.56 93.83 44.5 93.9 44.45C93.98 44.4 94.08 44.36 94.2 44.33C94.33 44.3 94.46 44.29 94.6 44.29C94.97 44.29 95.26 44.32 95.43 44.39C95.63 44.46 95.77 44.52 95.85 44.55L96.15 44.7L96.45 43.53L96.26 43.43C96.14 43.37 95.95 43.31 95.67 43.23C95.39 43.16 95.05 43.12 94.64 43.12C93.97 43.12 93.43 43.29 93.03 43.61C92.62 43.95 92.41 44.4 92.41 44.94C92.41 45.23 92.46 45.47 92.57 45.68C92.67 45.88 92.81 46.05 92.99 46.2C93.15 46.33 93.34 46.45 93.55 46.55C93.75 46.65 93.96 46.74 94.17 46.83C94.43 46.94 94.65 47.03 94.83 47.11C94.99 47.18 95.12 47.26 95.21 47.33C95.28 47.39 95.34 47.46 95.37 47.53C95.4 47.61 95.42 47.7 95.42 47.82C95.42 48.04 95.34 48.18 95.16 48.27C94.93 48.39 94.63 48.45 94.26 48.45C94.05 48.45 93.86 48.44 93.7 48.41C93.54 48.38 93.4 48.35 93.29 48.31C93.18 48.27 93.09 48.24 93.02 48.21C92.97 48.19 92.93 48.17 92.91 48.16L92.61 47.96L92.26 49.17L92.46 49.27C92.56 49.32 92.74 49.39 93.03 49.48C93.32 49.57 93.73 49.62 94.26 49.62C94.98 49.62 95.57 49.47 96 49.18C96.46 48.86 96.7 48.39 96.7 47.79C96.7 47.47 96.64 47.2 96.53 46.99C96.42 46.78 96.27 46.6 96.09 46.45L96.07 46.44Z" fill="white"/>
<path d="M105.28 41.3H104V49.49H108.88V48.3H105.28V41.3Z" fill="white"/>
<path d="M112.69 43.24H111.44V49.49H112.69V43.24Z" fill="white"/>
<path d="M112.06 40.97C111.84 40.97 111.65 41.05 111.5 41.19C111.35 41.34 111.26 41.55 111.26 41.79C111.26 42.03 111.34 42.23 111.5 42.39C111.65 42.54 111.84 42.61 112.06 42.61C112.28 42.61 112.47 42.53 112.62 42.39C112.77 42.24 112.86 42.03 112.86 41.79C112.86 41.55 112.78 41.34 112.62 41.19C112.47 41.04 112.28 40.97 112.06 40.97Z" fill="white"/>
<path d="M123.82 43.99C123.65 43.72 123.4 43.5 123.09 43.35C122.79 43.2 122.39 43.13 121.92 43.13C121.64 43.13 121.37 43.16 121.13 43.21C120.9 43.26 120.69 43.33 120.51 43.41C120.34 43.49 120.19 43.57 120.07 43.65C120.06 43.65 120.05 43.66 120.04 43.67C119.66 43.31 119.12 43.13 118.43 43.13C117.87 43.13 117.4 43.17 117.04 43.25C116.7 43.32 116.42 43.39 116.19 43.45L115.99 43.5V49.48H117.24V44.4C117.3 44.39 117.37 44.38 117.47 44.36C117.7 44.33 117.98 44.31 118.31 44.31C118.58 44.31 118.79 44.35 118.94 44.42C119.08 44.49 119.19 44.59 119.26 44.72C119.34 44.87 119.4 45.06 119.43 45.3C119.46 45.57 119.48 45.88 119.48 46.25V49.48H120.73V45.97C120.73 45.69 120.71 45.43 120.68 45.18C120.66 45 120.62 44.83 120.58 44.67C120.58 44.67 120.6 44.66 120.6 44.65C120.67 44.6 120.76 44.55 120.88 44.5C121 44.45 121.14 44.4 121.3 44.37C121.46 44.33 121.64 44.32 121.84 44.32C122.09 44.32 122.29 44.36 122.44 44.43C122.58 44.5 122.68 44.6 122.75 44.73C122.83 44.88 122.89 45.08 122.92 45.32C122.95 45.58 122.97 45.9 122.97 46.27V49.5H124.22V46.04C124.22 45.65 124.19 45.28 124.14 44.94C124.08 44.58 123.97 44.27 123.8 44L123.82 43.99Z" fill="white"/>
<path d="M127.54 41.19C127.38 41.34 127.3 41.54 127.3 41.79C127.3 42.04 127.38 42.23 127.54 42.39C127.69 42.54 127.89 42.61 128.1 42.61C128.31 42.61 128.51 42.53 128.66 42.39C128.82 42.24 128.9 42.04 128.9 41.79C128.9 41.54 128.82 41.34 128.66 41.19C128.36 40.9 127.84 40.9 127.54 41.19Z" fill="white"/>
<path d="M128.73 43.24H127.48V49.49H128.73V43.24Z" fill="white"/>
<path d="M135.19 48.16C135.1 48.21 134.97 48.27 134.8 48.34C134.65 48.4 134.43 48.43 134.17 48.43C134.01 48.43 133.87 48.41 133.75 48.38C133.65 48.36 133.57 48.31 133.51 48.24C133.44 48.16 133.38 48.04 133.33 47.88C133.28 47.7 133.26 47.46 133.26 47.16V44.39H135.54V43.25H133.26V41.39L132.01 41.62V47.1C132.01 47.5 132.04 47.85 132.1 48.15C132.17 48.47 132.29 48.74 132.45 48.96C132.62 49.19 132.86 49.36 133.14 49.47C133.41 49.57 133.74 49.63 134.13 49.63C134.46 49.63 134.77 49.58 135.05 49.49C135.33 49.4 135.52 49.32 135.65 49.23L135.82 49.12L135.49 48.01L135.2 48.18L135.19 48.16Z" fill="white"/>
<path d="M140.68 43.11C140.33 43.11 139.98 43.18 139.66 43.31C139.33 43.44 139.03 43.65 138.77 43.93C138.52 44.21 138.31 44.55 138.15 44.95C138 45.35 137.92 45.82 137.92 46.36C137.92 46.82 137.98 47.25 138.08 47.63C138.19 48.03 138.38 48.38 138.63 48.68C138.88 48.98 139.21 49.21 139.6 49.37C139.98 49.53 140.45 49.61 140.98 49.61C141.39 49.61 141.75 49.57 142.05 49.48C142.36 49.39 142.56 49.32 142.69 49.25L142.86 49.15L142.61 48L142.3 48.15C142.21 48.19 142.06 48.25 141.84 48.32C141.64 48.38 141.36 48.42 140.99 48.42C140.37 48.42 139.92 48.26 139.65 47.95C139.41 47.67 139.27 47.28 139.21 46.78H143.17L143.2 46.55C143.2 46.49 143.21 46.43 143.22 46.36C143.22 46.3 143.22 46.23 143.22 46.17C143.22 45.16 142.99 44.39 142.53 43.88C142.06 43.37 141.43 43.11 140.66 43.11H140.68ZM139.27 45.64C139.29 45.52 139.33 45.4 139.37 45.28C139.44 45.08 139.55 44.91 139.67 44.76C139.8 44.61 139.95 44.5 140.12 44.41C140.28 44.33 140.48 44.28 140.69 44.28C141.1 44.28 141.39 44.41 141.61 44.68C141.8 44.91 141.91 45.23 141.95 45.64H139.27Z" fill="white"/>
<path d="M150.08 40.56V43.4C150.01 43.37 149.93 43.33 149.84 43.3C149.53 43.18 149.17 43.12 148.77 43.12C148.32 43.12 147.91 43.2 147.56 43.36C147.21 43.52 146.9 43.76 146.66 44.05C146.42 44.34 146.23 44.69 146.11 45.09C145.99 45.48 145.93 45.91 145.93 46.37C145.93 46.87 146 47.32 146.15 47.71C146.3 48.11 146.51 48.46 146.78 48.74C147.05 49.03 147.38 49.25 147.76 49.39C148.13 49.54 148.55 49.61 149 49.61C149.52 49.61 149.96 49.57 150.31 49.51C150.65 49.44 150.94 49.37 151.16 49.29L151.34 49.23V40.32L150.09 40.55L150.08 40.56ZM150.08 44.69V48.34C150 48.36 149.92 48.37 149.81 48.39C149.61 48.42 149.33 48.44 148.99 48.44C148.45 48.44 148.02 48.27 147.69 47.92C147.36 47.57 147.2 47.05 147.2 46.37C147.2 46.08 147.23 45.79 147.29 45.53C147.35 45.28 147.44 45.06 147.57 44.88C147.69 44.71 147.86 44.57 148.06 44.46C148.26 44.36 148.52 44.3 148.82 44.3C148.97 44.3 149.11 44.31 149.25 44.34C149.39 44.37 149.52 44.41 149.64 44.45C149.76 44.5 149.86 44.55 149.95 44.6C149.99 44.63 150.03 44.65 150.07 44.67L150.08 44.69Z" fill="white"/>
<path d="M95.83 35.25C95.63 35.4 95.4 35.34 95.2 35.34C92.7 35.34 90.21 35.33 87.71 35.36C87.2 35.36 86.88 35.19 86.57 34.79C85.15 32.93 83.69 31.09 82.26 29.23C81.98 28.87 81.69 28.71 81.23 28.72C79.69 28.75 78.15 28.69 76.61 28.75C75.93 28.77 75.77 28.54 75.79 27.9C75.83 26.49 75.8 25.08 75.8 23.67C75.8 23.0233 76.1367 22.7 76.81 22.7C79.33 22.7 81.85 22.7 84.36 22.7C86.88 22.7 88.29 20.95 87.79 18.5C87.51 17.14 86.43 16.15 85.01 16.09C83.34 16.03 81.67 16.06 80 16.05C78.26 16.05 76.53 16.05 74.79 16.05C73.82 16.05 73.81 16.05 73.81 17.01C73.81 22.78 73.81 28.56 73.81 34.33C73.81 35.0167 73.47 35.36 72.79 35.36C71.05 35.36 69.32 35.35 67.58 35.36C67.11 35.36 66.93 35.23 66.94 34.73C66.95 26.46 66.95 18.19 66.94 9.92C66.94 9.46 67.11 9.32 67.55 9.33C73.35 9.33 79.14 9.27 84.94 9.36C88.24 9.41 91.11 10.6 93.1 13.38C95.88 17.27 95.61 24.38 90.07 27.42C89.55 27.71 89.7 27.9 89.98 28.23C91.8 30.36 93.61 32.49 95.42 34.63C95.58 34.82 95.81 34.98 95.84 35.26L95.83 35.25Z" fill="white"/>
<path d="M146.45 9.32C148.75 9.32 151.05 9.32 153.35 9.32C153.58 9.32 153.89 9.21 154.01 9.46C154.1 9.66 153.85 9.84 153.72 10.01C152.3 11.88 150.87 13.74 149.47 15.62C149.21 15.98 148.92 16.1 148.49 16.1C145.84 16.08 143.19 16.08 140.54 16.1C138.93 16.1 137.4 16.48 136.02 17.34C132.09 19.81 132.21 25.16 136.25 27.46C137.67 28.27 139.2 28.58 140.81 28.58C144.98 28.58 149.15 28.58 153.32 28.58C153.55 28.58 153.87 28.46 153.98 28.69C154.09 28.92 153.8 29.1 153.66 29.28C152.26 31.13 150.84 32.97 149.44 34.82C149.2 35.14 148.93 35.3 148.52 35.3C145.37 35.27 142.22 35.37 139.08 35.21C135.14 35 131.54 33.79 128.65 30.94C125.84 28.17 124.8 24.73 125.24 20.89C125.89 15.2 129.42 11.94 134.62 10.24C136.59 9.6 138.63 9.3 140.71 9.32C142.62 9.34 144.53 9.32 146.44 9.32H146.45Z" fill="white"/>
<path d="M113.5 9.45C117.08 9.45 120.66 9.45 124.25 9.45C124.46 9.45 124.75 9.35 124.86 9.54C125.01 9.8 124.7 9.95 124.56 10.13C123.16 11.95 121.73 13.76 120.34 15.59C120.02 16.01 119.68 16.2 119.14 16.19C117.75 16.15 116.36 16.18 114.97 16.18C114.303 16.18 113.97 16.5067 113.97 17.16C113.97 22.89 113.97 28.62 113.97 34.36C113.97 35.0067 113.653 35.33 113.02 35.33C110.96 35.33 108.89 35.33 106.83 35.33C106.217 35.33 105.91 35.0133 105.91 34.38C105.91 28.63 105.91 22.87 105.91 17.12C105.91 16.19 105.91 16.19 104.98 16.19C102.29 16.19 99.6 16.19 96.9 16.19C96.71 16.19 96.46 16.28 96.36 16.09C96.26 15.88 96.51 15.76 96.63 15.62C98.26 13.76 99.91 11.92 101.53 10.04C101.91 9.6 102.31 9.45 102.88 9.45C106.42 9.47 109.96 9.46 113.5 9.46V9.45Z" fill="white"/>
<path d="M36.68 7.48C34.18 3.09 30.92 0.44 27.5 0V11.95H35.2C36.2 11.47 37.2 11.01 38.19 10.55C37.73 9.47 37.23 8.43 36.69 7.48H36.68Z" fill="white"/>
<path d="M27.5 13.98V15.82C28.7 15.18 29.88 14.57 31.06 13.98H27.5Z" fill="white"/>
<path d="M7.83999 28.36C7.93999 28.28 8.03999 28.21 8.13999 28.14H0.0499878C0.199988 30.41 0.629988 32.61 1.32999 34.73C2.89999 32.59 5.08999 30.43 7.82999 28.36H7.83999Z" fill="white"/>
<path d="M11.43 13.98H3.11C1.12 17.69 0.05 21.89 0 26.12H9.78C9.81 21.85 10.36 17.77 11.43 13.98Z" fill="white"/>
<path d="M9.64003 46.85C12.31 49.06 15.4 50.74 18.74 51.76C17.17 50.37 15.75 48.56 14.5 46.37C13.65 44.88 12.89 43.22 12.25 41.46H10.7C10.22 42.35 9.87003 43.21 9.66003 44.02C9.39003 45.08 9.39003 46.01 9.63003 46.85H9.64003Z" fill="white"/>
<path d="M25.47 13.98H13.53C12.48 17.49 11.89 21.45 11.81 25.48C16.65 22.07 21.17 19.3 25.47 16.92V13.98Z" fill="white"/>
<path d="M14.5 6.48C15.75 4.29 17.17 2.48 18.74 1.09C12.82 2.9 7.71999 6.74 4.29999 11.95H12.05C12.73 9.97 13.55 8.13 14.49 6.48H14.5Z" fill="white"/>
<path d="M14.2 11.95H25.47V0C22.04 0.42 18.77 3.07 16.26 7.48C15.48 8.84 14.79 10.35 14.2 11.95Z" fill="white"/>
<path d="M16.26 45.37C18.77 49.78 22.04 52.43 25.47 52.85V41.46H14.41C14.95 42.85 15.57 44.17 16.26 45.37Z" fill="white"/>
<path d="M41.12 8.86L38.88 6.55L42.09 6.36L43.65 6.27C40.9 3.92 37.68 2.14 34.18 1.08C35.76 2.47 37.19 4.29 38.44 6.48C39.02 7.49 39.54 8.58 40.02 9.71C40.47 9.51 40.91 9.3 41.36 9.1L41.12 8.85V8.86Z" fill="white"/>
<path d="M41.35 39.44H49.56C51.54 35.95 52.67 32.15 52.93 28.14H43.14C43 32.12 42.4 35.92 41.36 39.44H41.35Z" fill="white"/>
<path d="M38.44 46.37C37.19 48.57 35.76 50.38 34.18 51.77C39.89 50.04 44.87 46.39 48.29 41.45H40.69C40.05 43.22 39.3 44.87 38.44 46.36V46.37Z" fill="white"/>
<path d="M48.62 13.98L47.47 15.56L45.86 17.77L44.9 15.22L44.71 14.71C43.81 15.22 42.94 15.72 42.07 16.22C42.77 19.36 43.14 22.68 43.16 26.13H52.97C52.92 21.9 51.85 17.71 49.86 13.99H48.61L48.62 13.98Z" fill="white"/>
<path d="M27.5 26.12H41.14C41.12 23.09 40.81 20.1 40.23 17.29C35.49 20.09 31.23 22.82 27.5 25.45V26.13V26.12Z" fill="white"/>
<path d="M41.11 28.14H27.5V39.44H39.24C40.34 35.96 40.97 32.16 41.11 28.14Z" fill="white"/>
<path d="M38.52 41.46H27.49V52.85C30.91 52.41 34.17 49.76 36.67 45.37C37.36 44.17 37.98 42.85 38.52 41.46Z" fill="white"/>
<path d="M13.23 37.8C13.38 38.35 13.53 38.9 13.7 39.43H25.47V28.13H23.79C19.22 31.6 15.66 34.86 13.23 37.79V37.8Z" fill="white"/>
<path d="M45.16 7.66L42.18 7.83L43.88 9.58C42.77 10.08 41.67 10.58 40.57 11.09C39.96 11.37 39.35 11.65 38.73 11.93C38.71 11.93 38.69 11.95 38.68 11.96C37.25 12.62 35.82 13.29 34.4 13.98C32.12 15.08 29.83 16.24 27.51 17.49C26.84 17.85 26.16 18.22 25.49 18.6C21.65 20.74 17.7 23.18 13.48 26.12C12.29 26.95 11.09 27.81 9.85999 28.72C9.48999 28.99 9.11999 29.26 8.74999 29.54C5.73999 31.81 3.45999 34.16 1.97999 36.42C-1.93001 42.41 -0.140012 47.7 8.90999 48.73C8.26999 47.73 7.96999 46.61 8.00999 45.37C8.04999 44.17 8.39999 42.87 9.06999 41.47C9.37999 40.82 9.75999 40.14 10.21 39.45C10.51 38.98 10.84 38.51 11.21 38.02C11.69 37.38 12.23 36.72 12.82 36.04C14.96 33.6 17.81 30.96 21.38 28.14C22.22 27.48 23.11 26.8 24.03 26.12C24.5 25.77 24.99 25.41 25.49 25.06C26.15 24.59 26.82 24.11 27.51 23.63C31.13 21.12 35.26 18.5 39.9 15.77C40.5 15.42 41.1 15.07 41.72 14.71C42.14 14.47 42.57 14.22 43.01 13.97C43.83 13.51 44.66 13.04 45.5 12.57L46.03 13.97L46.3 14.68L46.82 13.97L48.29 11.95L48.49 11.67L51.69 7.27L45.18 7.65L45.16 7.66Z" fill="white"/>
<path d="M51.67 7.28L46.28 14.69L45.48 12.58C16.53 28.66 4.42 41.73 8.89 48.73C-8.25 41.77 23.97 20.05 46.4 9.6C46.77 11.87 50.43 8.18 51.67 7.28Z" fill="white"/>
</g>
<defs>
<clipPath id="clip0_9_4024">
<rect width="154.03" height="52.85" fill="white"/>
</clipPath>
</defs>
</svg>
